<?xml version="1.0" standalone="no"?>
<!DOCTYPE svg PUBLIC "-//W3C//DTD SVG 20010904//EN"
 "http://www.w3.org/TR/2001/REC-SVG-20010904/DTD/svg10.dtd">
<svg version="1.0" xmlns="http://www.w3.org/2000/svg"
 width="700.000000pt" height="700.000000pt" viewBox="0 0 700.000000 700.000000"
 preserveAspectRatio="xMidYMid meet">
<metadata>
Created by potrace 1.14, written by Peter Selinger 2001-2017
</metadata>
<g transform="translate(0.000000,700.000000) scale(0.100000,-0.100000)"
fill="#000000" stroke="none">
<path d="M3308 6555 c-2 -1 -41 -5 -88 -9 -47 -4 -96 -8 -110 -10 -14 -2 -46
-7 -71 -10 -119 -17 -303 -58 -442 -101 -930 -282 -1682 -1010 -1994 -1930
-32 -95 -79 -259 -88 -308 -3 -12 -11 -56 -19 -97 -17 -85 -25 -135 -32 -200
-2 -25 -7 -56 -10 -70 -9 -42 -12 -481 -4 -560 20 -187 19 -182 46 -325 88
-476 313 -958 626 -1342 311 -382 746 -708 1183 -888 50 -20 99 -41 110 -46
18 -7 211 -69 280 -90 37 -10 197 -46 245 -54 19 -3 46 -7 60 -10 55 -10 88
-14 254 -31 55 -6 435 -6 466 0 14 2 57 7 95 11 60 5 147 18 270 41 17 2 46 9
65 14 19 5 51 12 70 15 56 10 299 88 392 126 98 40 123 51 238 108 422 210
799 527 1083 909 68 93 212 317 224 350 3 9 14 28 23 42 29 43 121 250 167
375 83 224 150 521 173 770 10 110 13 420 5 505 -7 63 -26 231 -30 255 -80
511 -305 1014 -638 1430 -74 92 -305 331 -386 399 -344 290 -716 490 -1138
615 -104 30 -313 76 -393 86 -25 3 -56 7 -70 10 -76 14 -549 31 -562 20z m97
-3035 c0 -1570 -1 -2860 -3 -2866 -2 -6 -19 -10 -40 -8 -20 1 -71 5 -112 8
-72 5 -137 13 -190 22 -14 2 -54 9 -90 15 -153 24 -387 93 -574 168 -528 212
-1026 632 -1339 1129 -58 92 -173 311 -209 397 -115 275 -189 564 -215 840
-10 102 -10 498 0 590 8 71 10 86 27 185 5 30 12 69 15 86 8 51 54 224 82 309
239 734 763 1342 1455 1686 259 129 567 228 823 264 22 3 49 7 60 10 11 2 56
7 100 11 44 4 81 7 82 8 1 1 30 1 64 1 l63 0 1 -2855z m430 2839 c118 -15 148
-20 165 -24 8 -2 31 -7 50 -10 144 -24 398 -103 570 -178 227 -98 478 -249
670 -404 180 -144 395 -374 538 -574 242 -339 427 -788 487 -1179 3 -19 7 -46
10 -60 5 -26 10 -75 21 -190 13 -134 7 -452 -10 -560 -2 -14 -7 -47 -10 -75
-11 -87 -17 -117 -47 -245 -155 -660 -528 -1231 -1069 -1639 -254 -191 -513
-328 -817 -429 -168 -57 -269 -81 -483 -117 -56 -10 -253 -28 -305 -29 -20 0
-20 7 -22 1630 l-1 1631 51 -56 c29 -30 57 -60 62 -67 6 -6 51 -55 100 -109
50 -54 95 -103 100 -109 6 -7 32 -36 59 -66 27 -30 72 -80 100 -110 29 -30
139 -152 246 -270 106 -118 201 -222 209 -231 9 -9 50 -54 93 -100 43 -48 84
-85 95 -85 17 0 18 29 17 766 -1 421 -2 767 -3 770 -1 3 -38 5 -83 5 l-83 0
-5 -584 -5 -584 -76 84 c-41 46 -100 111 -129 144 -30 33 -68 75 -85 94 -113
125 -220 244 -261 291 -21 24 -48 54 -59 65 -11 11 -56 61 -99 110 -44 50 -86
97 -95 105 -9 9 -46 49 -83 91 l-67 75 1 1123 0 1122 86 -6 c48 -3 123 -10
167 -16z"/>
<path d="M2269 4231 c-1 -9 -2 -348 -2 -754 l-2 -737 90 0 90 0 0 753 -1 752
-87 1 c-74 2 -87 0 -88 -15z"/>
</g>
</svg>
