<svg xmlns="http://www.w3.org/2000/svg" xml:space="preserve" width="1133.853" height="1133.853" viewBox="0 0 1133.853 1133.853"><defs><clipPath id="a" clipPathUnits="userSpaceOnUse"><path d="M0 850.39h850.39V0H0Z"/></clipPath></defs><path d="M296.89 332.719h-21.544v183.24h21.544z" style="fill:#fff;fill-opacity:1;fill-rule:nonzero;stroke:none" transform="matrix(1.33333 0 0 -1.33333 0 1133.853)"/><path d="M0 0h-4.45l-133.715 147.085V3.962h-20.551v187.697l5.161-.035L-21.043 44.382v142.819H0Z" style="fill:#fff;fill-opacity:1;fill-rule:nonzero;stroke:none" transform="matrix(1.33333 0 0 -1.33333 763.637 695.84)"/><g clip-path="url(#a)" transform="matrix(1.33333 0 0 -1.33333 0 1133.853)"><path d="M0 0c0-198.428-160.856-359.282-359.278-359.282-198.426 0-359.279 160.854-359.279 359.282 0 198.422 160.853 359.276 359.279 359.276C-160.856 359.276 0 198.422 0 0Z" style="fill:none;stroke:#fff;stroke-width:21.543;stroke-linecap:butt;stroke-linejoin:miter;stroke-miterlimit:10;stroke-dasharray:none;stroke-opacity:1" transform="translate(782.854 426.694)"/><path d="M0 0v-718.558" style="fill:none;stroke:#fff;stroke-width:21.543;stroke-linecap:butt;stroke-linejoin:miter;stroke-miterlimit:10;stroke-dasharray:none;stroke-opacity:1" transform="translate(424.32 785.97)"/></g></svg>