<svg xmlns="http://www.w3.org/2000/svg" width="60" height="60" fill="none" viewBox="0 0 60 60"><g clip-path="url(#a)"><path fill="#fff" fill-rule="evenodd" d="M47.732 26.61c-9.668-5.712-25.614-6.237-34.842-3.451A2.807 2.807 0 0 1 9.39 21.3a2.789 2.789 0 0 1 1.87-3.481c10.594-3.2 28.205-2.582 39.334 3.99 1.334.788 1.77 2.5.98 3.824a2.812 2.812 0 0 1-3.843.976Zm-.317 8.458a2.346 2.346 0 0 1-3.216.766c-8.06-4.928-20.35-6.356-29.885-3.476a2.344 2.344 0 0 1-2.918-1.55 2.327 2.327 0 0 1 1.56-2.9c10.892-3.29 24.433-1.697 33.69 3.963a2.319 2.319 0 0 1 .77 3.197Zm-3.67 8.125a1.873 1.873 0 0 1-2.57.618c-7.042-4.282-15.907-5.248-26.346-2.876a1.868 1.868 0 0 1-2.238-1.398c-.231-1.001.397-1.999 1.405-2.227 11.425-2.598 21.224-1.48 29.13 3.325a1.854 1.854 0 0 1 .62 2.558ZM29.992.16C13.428.16 0 13.517 0 29.994 0 46.474 13.428 59.83 29.991 59.83c16.564 0 29.992-13.357 29.992-29.835S46.555.16 29.99.16Z" clip-rule="evenodd"/></g><defs><clipPath id="a"><path fill="#fff" d="M0 0h60v60H0z"/></clipPath></defs></svg>